<?xml version="1.0" standalone="no"?><!DOCTYPE svg PUBLIC "-//W3C//DTD SVG 1.1//EN" "http://www.w3.org/Graphics/SVG/1.1/DTD/svg11.dtd"><svg class="icon" width="200px" height="200.00px" viewBox="0 0 1024 1024" version="1.1" xmlns="http://www.w3.org/2000/svg"><path d="M483.893983 62.701406C464.417041 65.413385 432.61292 74.782041 414.615239 83.411066 367.032329 105.846531 339.172905 137.157565 324.38029 184.247388 318.956332 201.505438 318.709788 206.682853 318.956332 263.141332 318.956332 324.037595 321.175224 346.47306 331.28351 390.850904 341.391797 435.47534 360.868739 483.551288 382.811118 517.327757 396.864101 539.023592 427.435455 569.594995 446.665903 580.936 524.820217 627.286192 605.193373 590.304655 658.693378 483.304744 676.937602 446.569751 690.251054 401.698821 698.633437 346.966147 705.04357 305.79337 705.04357 206.929397 698.87998 184.493932 681.128843 121.62532 627.135751 78.233651 550.214106 64.673754 530.490719 61.222144 501.398577 60.482514 483.893983 62.701406ZM558.103599 108.065473C587.688779 115.708274 612.096716 128.775133 629.847779 146.279727 655.734855 172.413296 662.144988 189.671347 662.884618 237.747344 663.377706 262.648245 662.638075 271.770357 660.419183 272.509988 655.981448 273.989249 628.368469 259.689722 617.027513 250.074522 602.234899 237.254257 592.866243 218.516945 591.140438 198.053828 590.154362 183.261214 588.921497 180.302691 583.497587 176.11145 572.403126 167.975512 563.527558 171.920209 552.186553 190.410977 525.066711 233.556103 457.267277 266.839485 389.714338 269.798008L359.389478 271.27727 359.389478 240.459323C359.389478 197.560741 366.292698 175.618363 387.248902 152.936354 408.205106 130.254345 445.926273 110.530859 480.19583 104.613813 498.933141 101.408747 539.366287 103.134552 558.103599 108.065473ZM567.472255 254.01922C581.032152 277.440859 614.068892 301.60213 646.366199 311.463873L660.91227 315.901657 659.433008 332.173533C657.953747 350.910844 647.105928 400.466103 639.956066 422.161938 637.244087 430.297875 629.10805 449.035187 621.711841 464.074345 579.306347 550.611239 521.368607 580.196369 465.156672 544.201007 450.364057 534.585808 426.44933 509.684907 414.861856 491.440682 403.027691 472.950013 388.235076 440.406162 380.592225 416.244892 374.428636 396.521504 363.087632 344.747255 360.868739 324.530682L359.636022 313.189678 386.016184 311.463873C450.364057 307.272632 514.71193 284.097536 550.460748 252.293415 555.884707 247.609087 560.569035 243.664389 560.815578 243.417846 560.815578 243.417846 564.020645 248.348717 567.472255 254.01922Z" fill="#000000" /><path d="M315.011635 626.546561C201.848134 657.364508 164.37351 678.074168 144.403481 720.726206 136.267543 737.984257 133.802107 752.776871 115.311339 886.896576 111.366667 915.988718 107.421945 943.355054 106.43577 947.546295L104.956509 955.189146 120.735322 958.147669C129.117779 959.873474 137.993299 961.599279 140.21224 962.33891 145.882742 964.064715 147.608597 955.682233 162.154618 846.216886 176.207602 741.435867 177.933407 735.518821 198.14998 716.781509 211.709877 704.45433 229.214471 696.071849 270.633791 682.758447 306.382609 671.170948 357.417129 657.611051 359.882565 659.090313 360.868739 659.829943 369.004677 670.924306 378.12679 684.237757 387.495445 697.304567 410.917085 730.834493 430.640472 758.693917 450.364057 786.553341 473.539153 819.097093 481.921635 831.424271 500.412403 857.311347 503.124382 859.776783 513.725854 859.776783 521.122063 859.776783 523.340955 857.55789 536.900852 839.313666 555.884707 813.42659 643.407627 690.154902 654.74873 672.896753 665.350005 657.118013 665.596598 657.118013 708.248636 668.952154 801.935194 694.346044 833.246228 711.111007 846.066494 741.68241 848.038843 746.366738 854.202432 783.101731 859.872935 823.04179 877.377528 949.025557 879.103333 961.106192 880.089508 962.33891 881.815313 964.064715 919.043392 955.189146 919.043392 953.216797 919.043392 942.861967 888.471989 739.463518 885.76001 731.820667 880.336051 716.288422 866.776155 696.81148 852.476627 683.991164 830.041162 663.774641 789.361472 647.502765 709.234712 626.793104 665.103511 615.205606 651.543688 613.479751 644.886937 618.657167 642.668045 620.382972 628.368469 639.61337 613.082816 661.309205 551.200379 749.325261 513.972299 800.606325 512.246494 800.606325 510.274146 800.606325 494.495258 778.663946 428.668173 684.730845 405.246583 651.447536 383.797292 622.35532 381.085362 619.889884 373.44256 613.479751 357.663673 614.959013 315.011635 626.546561Z" fill="#000000" /></svg>